<svg width="14" height="13" viewBox="0 0 14 13" fill="none" xmlns="http://www.w3.org/2000/svg">
<path d="M2.01194 13H11.9962C13.6947 13 14.4965 11.593 13.6757 10.1113L8.63698 1.12561C7.79719 -0.375202 6.19187 -0.375202 5.35208 1.12561L0.332347 10.1113C-0.507448 11.6121 0.314122 13 2.01194 13ZM1.54538 10.8053L6.56511 1.81954C6.80787 1.38791 7.10602 1.2758 7.40491 1.81954L12.4444 10.8053C12.7433 11.349 12.4444 11.593 11.9779 11.593H2.01194C1.37772 11.593 1.30263 11.2743 1.54538 10.8053Z" fill="#694200"/>
<path d="M6.78733 7.77895H7.22585C7.43143 7.77895 7.68579 7.45721 7.68579 7.25056V4.5628C7.68579 4.24403 7.44303 4 7.12593 4H6.846C6.52889 4 6.28613 4.24403 6.28613 4.5628V7.25056C6.28613 7.45649 6.58175 7.77895 6.78733 7.77895Z" fill="#694200"/>
<path d="M7.70378 9.1855C7.70378 10.136 6.28589 10.136 6.28589 9.1855C6.28589 8.23504 7.70378 8.23504 7.70378 9.1855Z" fill="#694200"/>
</svg>
